<svg width="256" height="256" viewBox="0 0 256 256" fill="none" xmlns="http://www.w3.org/2000/svg">
  <g filter="url(#glow)">
    <circle cx="128" cy="128" r="78" fill="url(#base)" opacity=".24"/>
    <path d="M128 38a90 90 0 0 1 75.6 41.1l-18 11.8A68.5 68.5 0 0 0 128 60V38Z" fill="#ef4444"/>
    <path d="M212 95.5a90 90 0 0 1-1 69.7l-20-8a68.5 68.5 0 0 0 .8-53l20.2-8.7Z" fill="#f97316"/>
    <path d="M199 185.2a90 90 0 0 1-58.6 31.9l-3.1-21.2a68.5 68.5 0 0 0 44.6-24.3l17.1 13.6Z" fill="#db2777"/>
    <path d="M116.6 217.2A90 90 0 0 1 54 180.4l17.5-12.8a68.5 68.5 0 0 0 47.7 28l-2.6 21.6Z" fill="#7c3aed"/>
    <path d="M41.3 156.2a90 90 0 0 1 9.2-67.6l18.7 10.7a68.5 68.5 0 0 0-7 51.5l-20.9 5.4Z" fill="#06b6d4"/>
    <path d="M65.4 69.8A90 90 0 0 1 113.6 39l4.2 21.1a68.5 68.5 0 0 0-36.7 23.5L65.4 69.8Z" fill="#22c55e"/>

    <path d="M128 67a61 61 0 0 1 52.3 29.6l-15.6 9.4A42.8 42.8 0 0 0 128 85.2V67Z" fill="#f59e0b"/>
    <path d="M188.9 126a61 61 0 0 1-18.4 43.7l-12.9-12.9a42.8 42.8 0 0 0 12.9-30.8h18.4Z" fill="#ef4444"/>
    <path d="M144.7 186.7a61 61 0 0 1-54.2-12.5l11.5-14.2a42.8 42.8 0 0 0 38.1 8.8l4.6 17.9Z" fill="#0ea5e9"/>
    <path d="M72.3 153.2a61 61 0 0 1 1.3-53l16.4 8a42.8 42.8 0 0 0-.9 37.2l-16.8 7.8Z" fill="#14b8a6"/>
    <path d="M92.2 78.5a61 61 0 0 1 26.2-10.8l2.6 18.1a42.8 42.8 0 0 0-18.4 7.6L92.2 78.5Z" fill="#a855f7"/>

    <circle cx="43" cy="128" r="6" fill="#22d3ee"/>
    <circle cx="57" cy="75" r="4" fill="#f59e0b"/>
    <circle cx="88" cy="43" r="5" fill="#e11d48"/>
    <circle cx="157" cy="34" r="6" fill="#ef4444"/>
    <circle cx="206" cy="68" r="5" fill="#0ea5e9"/>
    <circle cx="223" cy="132" r="4" fill="#db2777"/>
    <circle cx="189" cy="218" r="5" fill="#f97316"/>
    <circle cx="102" cy="225" r="5" fill="#06b6d4"/>
    <circle cx="48" cy="182" r="5" fill="#e11d48"/>
  </g>
  <path d="M154.5 91.5H118c-11.4 0-20.7 2.4-27.7 7.3-7 4.9-10.5 11.7-10.5 20.2 0 6.3 2.2 11.4 6.6 15.3 4.4 3.9 11.5 7 21.2 9.3l18.2 4.3c5.3 1.3 9 2.7 11.1 4.4 2.1 1.7 3.2 3.9 3.2 6.8 0 3.7-1.7 6.6-5.2 8.5-3.4 1.9-8.6 2.9-15.4 2.9H77.2v25.9h44.2c14.2 0 25.1-3 32.7-9 7.6-6 11.4-14.1 11.4-24.3 0-7.4-2.4-13.2-7.3-17.4-4.9-4.2-12.7-7.5-23.6-9.9l-17.2-3.9c-4.3-1-7.4-2.2-9.3-3.6-1.9-1.4-2.8-3.3-2.8-5.8 0-3.1 1.5-5.4 4.4-7 2.9-1.6 7.3-2.4 13.1-2.4h31.7V91.5Z" fill="white"/>
  <defs>
    <radialGradient id="base" cx="0" cy="0" r="1" gradientUnits="userSpaceOnUse" gradientTransform="translate(128 128) rotate(90) scale(101)">
      <stop stop-color="#ffffff"/>
      <stop offset=".42" stop-color="#7c3aed"/>
      <stop offset="1" stop-color="#06b6d4"/>
    </radialGradient>
    <filter id="glow" x="16" y="16" width="224" height="224" filterUnits="userSpaceOnUse" color-interpolation-filters="sRGB">
      <feGaussianBlur stdDeviation="1.5" result="blur"/>
      <feColorMatrix in="blur" type="matrix" values="1 0 0 0 0.1 0 1 0 0 0.2 0 0 1 0 0.6 0 0 0 0.8 0"/>
      <feBlend in="SourceGraphic"/>
    </filter>
  </defs>
</svg>
